<?xml version="1.0" encoding="utf-8" standalone="no"?>
<!DOCTYPE svg PUBLIC "-//W3C//DTD SVG 1.1//EN"
  "http://www.w3.org/Graphics/SVG/1.1/DTD/svg11.dtd">
<svg xmlns:xlink="http://www.w3.org/1999/xlink" width="460.8pt" height="345.6pt" viewBox="0 0 460.8 345.6" xmlns="http://www.w3.org/2000/svg" version="1.1">
 <metadata>
  <rdf:RDF xmlns:dc="http://purl.org/dc/elements/1.1/" xmlns:cc="http://creativecommons.org/ns#" xmlns:rdf="http://www.w3.org/1999/02/22-rdf-syntax-ns#">
   <cc:Work>
    <dc:type rdf:resource="http://purl.org/dc/dcmitype/StillImage"/>
    <dc:date>2024-12-18T14:32:33.299379</dc:date>
    <dc:format>image/svg+xml</dc:format>
    <dc:creator>
     <cc:Agent>
      <dc:title>Matplotlib v3.9.2, https://matplotlib.org/</dc:title>
     </cc:Agent>
    </dc:creator>
   </cc:Work>
  </rdf:RDF>
 </metadata>
 <defs>
  <style type="text/css">*{stroke-linejoin: round; stroke-linecap: butt}</style>
 </defs>
 <g id="figure_1">
  <g id="patch_1">
   <path d="M 0 345.6 
L 460.8 345.6 
L 460.8 0 
L 0 0 
z
" style="fill: #ffffff"/>
  </g>
  <g id="axes_1">
   <g id="patch_2">
    <path d="M 49.81399 304.50101 
L 457.79976 304.50101 
L 457.79976 3.00024 
L 49.81399 3.00024 
z
" style="fill: #ffffff"/>
   </g>
   <g id="PolyCollection_1">
    <defs>
     <path id="mf805cf8a4d" d="M 49.81399 -113.109057 
L 49.81399 -113.109057 
L 53.248214 -115.624539 
L 56.682437 -118.107807 
L 60.116661 -120.559273 
L 63.550885 -122.979344 
L 66.985108 -125.368422 
L 70.419332 -127.726905 
L 73.853556 -130.055183 
L 77.287779 -132.353645 
L 80.722003 -134.62267 
L 84.156227 -136.862638 
L 87.59045 -139.073919 
L 91.024674 -141.256882 
L 94.458897 -143.411888 
L 97.893121 -145.539296 
L 101.327345 -147.639459 
L 104.761568 -149.712727 
L 108.195792 -151.759443 
L 111.630016 -153.779947 
L 115.064239 -155.774576 
L 118.498463 -157.743661 
L 121.932687 -159.687528 
L 125.36691 -161.606502 
L 128.801134 -163.500899 
L 132.235358 -165.371037 
L 135.669581 -167.217224 
L 139.103805 -169.039768 
L 142.538029 -170.838971 
L 145.972252 -172.615133 
L 149.406476 -174.368548 
L 152.8407 -176.099508 
L 156.274923 -177.808301 
L 159.709147 -179.49521 
L 163.143371 -181.160515 
L 166.577594 -182.804493 
L 170.011818 -184.427418 
L 173.446042 -186.029559 
L 176.880265 -187.611182 
L 180.314489 -189.17255 
L 183.748712 -190.713922 
L 187.182936 -192.235554 
L 190.61716 -193.737699 
L 194.051383 -195.220608 
L 197.485607 -196.684525 
L 200.919831 -198.129694 
L 204.354054 -199.556356 
L 207.788278 -200.964748 
L 211.222502 -202.355102 
L 214.656725 -203.727651 
L 218.090949 -205.082623 
L 221.525173 -206.420242 
L 224.959396 -207.74073 
L 228.39362 -209.044308 
L 231.827844 -210.331192 
L 235.262067 -211.601594 
L 238.696291 -212.855728 
L 242.130515 -214.0938 
L 245.564738 -215.316017 
L 248.998962 -216.522582 
L 252.433186 -217.713694 
L 255.867409 -218.889553 
L 259.301633 -220.050353 
L 262.735856 -221.196287 
L 266.17008 -222.327545 
L 269.604304 -223.444316 
L 273.038527 -224.546785 
L 276.472751 -225.635135 
L 279.906975 -226.709548 
L 283.341198 -227.7702 
L 286.775422 -228.81727 
L 290.209646 -229.85093 
L 293.643869 -230.871352 
L 297.078093 -231.878707 
L 300.512317 -232.87316 
L 303.94654 -233.854879 
L 307.380764 -234.824024 
L 310.814988 -235.780759 
L 314.249211 -236.72524 
L 317.683435 -237.657627 
L 321.117659 -238.578072 
L 324.551882 -239.48673 
L 327.986106 -240.383751 
L 331.42033 -241.269285 
L 334.854553 -242.143478 
L 338.288777 -243.006475 
L 341.723001 -243.85842 
L 345.157224 -244.699455 
L 348.591448 -245.52972 
L 352.025671 -246.349351 
L 355.459895 -247.158486 
L 358.894119 -247.957258 
L 362.328342 -248.745801 
L 365.762566 -249.524245 
L 369.19679 -250.292721 
L 372.631013 -251.051354 
L 376.065237 -251.800273 
L 379.499461 -252.5396 
L 382.933684 -253.269459 
L 386.367908 -253.989971 
L 389.802132 -254.701256 
L 389.802132 -330.239382 
L 389.802132 -330.239382 
L 386.367908 -329.543099 
L 382.933684 -328.832649 
L 379.499461 -328.107746 
L 376.065237 -327.368094 
L 372.631013 -326.613394 
L 369.19679 -325.84334 
L 365.762566 -325.057619 
L 362.328342 -324.255912 
L 358.894119 -323.437895 
L 355.459895 -322.603235 
L 352.025671 -321.751594 
L 348.591448 -320.882626 
L 345.157224 -319.995979 
L 341.723001 -319.091293 
L 338.288777 -318.168202 
L 334.854553 -317.22633 
L 331.42033 -316.265295 
L 327.986106 -315.284709 
L 324.551882 -314.284172 
L 321.117659 -313.263279 
L 317.683435 -312.221616 
L 314.249211 -311.158761 
L 310.814988 -310.074282 
L 307.380764 -308.967739 
L 303.94654 -307.838683 
L 300.512317 -306.686657 
L 297.078093 -305.511193 
L 293.643869 -304.311813 
L 290.209646 -303.088033 
L 286.775422 -301.839354 
L 283.341198 -300.565272 
L 279.906975 -299.265268 
L 276.472751 -297.938815 
L 273.038527 -296.585376 
L 269.604304 -295.2044 
L 266.17008 -293.795329 
L 262.735856 -292.357591 
L 259.301633 -290.890601 
L 255.867409 -289.393766 
L 252.433186 -287.866477 
L 248.998962 -286.308116 
L 245.564738 -284.718049 
L 242.130515 -283.095633 
L 238.696291 -281.440209 
L 235.262067 -279.751105 
L 231.827844 -278.027636 
L 228.39362 -276.269103 
L 224.959396 -274.474793 
L 221.525173 -272.643978 
L 218.090949 -270.775914 
L 214.656725 -268.869845 
L 211.222502 -266.924997 
L 207.788278 -264.94058 
L 204.354054 -262.915791 
L 200.919831 -260.849807 
L 197.485607 -258.741791 
L 194.051383 -256.590887 
L 190.61716 -254.396223 
L 187.182936 -252.156909 
L 183.748712 -249.872035 
L 180.314489 -247.540676 
L 176.880265 -245.161885 
L 173.446042 -242.734698 
L 170.011818 -240.258129 
L 166.577594 -237.731175 
L 163.143371 -235.15281 
L 159.709147 -232.521987 
L 156.274923 -229.837641 
L 152.8407 -227.098681 
L 149.406476 -224.303998 
L 145.972252 -221.452456 
L 142.538029 -218.5429 
L 139.103805 -215.574148 
L 135.669581 -212.544998 
L 132.235358 -209.454219 
L 128.801134 -206.300558 
L 125.36691 -203.082736 
L 121.932687 -199.799447 
L 118.498463 -196.44936 
L 115.064239 -193.031115 
L 111.630016 -189.543326 
L 108.195792 -185.984578 
L 104.761568 -182.353426 
L 101.327345 -178.648399 
L 97.893121 -174.867993 
L 94.458897 -171.010675 
L 91.024674 -167.074879 
L 87.59045 -163.05901 
L 84.156227 -158.961437 
L 80.722003 -154.7805 
L 77.287779 -150.514501 
L 73.853556 -146.16171 
L 70.419332 -141.720362 
L 66.985108 -137.188654 
L 63.550885 -132.564748 
L 60.116661 -127.846769 
L 56.682437 -123.032803 
L 53.248214 -118.120896 
L 49.81399 -113.109057 
z
" style="stroke: #cccccc"/>
    </defs>
    <g clip-path="url(#p3b807f90b7)">
     <use xlink:href="#mf805cf8a4d" x="0" y="345.6" style="fill: #cccccc; stroke: #cccccc"/>
    </g>
   </g>
   <g id="matplotlib.axis_1">
    <g id="xtick_1">
     <g id="line2d_1">
      <defs>
       <path id="m230ff90d69" d="M 0 0 
L 0 3.5 
" style="stroke: #000000; stroke-width: 0.8"/>
      </defs>
      <g>
       <use xlink:href="#m230ff90d69" x="49.81399" y="304.50101" style="stroke: #000000; stroke-width: 0.8"/>
      </g>
     </g>
     <g id="text_1">
      <!-- 0.00 -->
      <g transform="translate(34.228053 322.138822) scale(0.14 -0.14)">
       <defs>
        <path id="DejaVuSans-30" d="M 2034 4250 
Q 1547 4250 1301 3770 
Q 1056 3291 1056 2328 
Q 1056 1369 1301 889 
Q 1547 409 2034 409 
Q 2525 409 2770 889 
Q 3016 1369 3016 2328 
Q 3016 3291 2770 3770 
Q 2525 4250 2034 4250 
z
M 2034 4750 
Q 2819 4750 3233 4129 
Q 3647 3509 3647 2328 
Q 3647 1150 3233 529 
Q 2819 -91 2034 -91 
Q 1250 -91 836 529 
Q 422 1150 422 2328 
Q 422 3509 836 4129 
Q 1250 4750 2034 4750 
z
" transform="scale(0.015625)"/>
        <path id="DejaVuSans-2e" d="M 684 794 
L 1344 794 
L 1344 0 
L 684 0 
L 684 794 
z
" transform="scale(0.015625)"/>
       </defs>
       <use xlink:href="#DejaVuSans-30"/>
       <use xlink:href="#DejaVuSans-2e" x="63.623047"/>
       <use xlink:href="#DejaVuSans-30" x="95.410156"/>
       <use xlink:href="#DejaVuSans-30" x="159.033203"/>
      </g>
     </g>
    </g>
    <g id="xtick_2">
     <g id="line2d_2">
      <g>
       <use xlink:href="#m230ff90d69" x="103.609582" y="304.50101" style="stroke: #000000; stroke-width: 0.8"/>
      </g>
     </g>
     <g id="text_2">
      <!-- 0.25 -->
      <g transform="translate(88.023645 322.138822) scale(0.14 -0.14)">
       <defs>
        <path id="DejaVuSans-32" d="M 1228 531 
L 3431 531 
L 3431 0 
L 469 0 
L 469 531 
Q 828 903 1448 1529 
Q 2069 2156 2228 2338 
Q 2531 2678 2651 2914 
Q 2772 3150 2772 3378 
Q 2772 3750 2511 3984 
Q 2250 4219 1831 4219 
Q 1534 4219 1204 4116 
Q 875 4013 500 3803 
L 500 4441 
Q 881 4594 1212 4672 
Q 1544 4750 1819 4750 
Q 2544 4750 2975 4387 
Q 3406 4025 3406 3419 
Q 3406 3131 3298 2873 
Q 3191 2616 2906 2266 
Q 2828 2175 2409 1742 
Q 1991 1309 1228 531 
z
" transform="scale(0.015625)"/>
        <path id="DejaVuSans-35" d="M 691 4666 
L 3169 4666 
L 3169 4134 
L 1269 4134 
L 1269 2991 
Q 1406 3038 1543 3061 
Q 1681 3084 1819 3084 
Q 2600 3084 3056 2656 
Q 3513 2228 3513 1497 
Q 3513 744 3044 326 
Q 2575 -91 1722 -91 
Q 1428 -91 1123 -41 
Q 819 9 494 109 
L 494 744 
Q 775 591 1075 516 
Q 1375 441 1709 441 
Q 2250 441 2565 725 
Q 2881 1009 2881 1497 
Q 2881 1984 2565 2268 
Q 2250 2553 1709 2553 
Q 1456 2553 1204 2497 
Q 953 2441 691 2322 
L 691 4666 
z
" transform="scale(0.015625)"/>
       </defs>
       <use xlink:href="#DejaVuSans-30"/>
       <use xlink:href="#DejaVuSans-2e" x="63.623047"/>
       <use xlink:href="#DejaVuSans-32" x="95.410156"/>
       <use xlink:href="#DejaVuSans-35" x="159.033203"/>
      </g>
     </g>
    </g>
    <g id="xtick_3">
     <g id="line2d_3">
      <g>
       <use xlink:href="#m230ff90d69" x="157.405174" y="304.50101" style="stroke: #000000; stroke-width: 0.8"/>
      </g>
     </g>
     <g id="text_3">
      <!-- 0.50 -->
      <g transform="translate(141.819237 322.138822) scale(0.14 -0.14)">
       <use xlink:href="#DejaVuSans-30"/>
       <use xlink:href="#DejaVuSans-2e" x="63.623047"/>
       <use xlink:href="#DejaVuSans-35" x="95.410156"/>
       <use xlink:href="#DejaVuSans-30" x="159.033203"/>
      </g>
     </g>
    </g>
    <g id="xtick_4">
     <g id="line2d_4">
      <g>
       <use xlink:href="#m230ff90d69" x="211.200766" y="304.50101" style="stroke: #000000; stroke-width: 0.8"/>
      </g>
     </g>
     <g id="text_4">
      <!-- 0.75 -->
      <g transform="translate(195.614829 322.138822) scale(0.14 -0.14)">
       <defs>
        <path id="DejaVuSans-37" d="M 525 4666 
L 3525 4666 
L 3525 4397 
L 1831 0 
L 1172 0 
L 2766 4134 
L 525 4134 
L 525 4666 
z
" transform="scale(0.015625)"/>
       </defs>
       <use xlink:href="#DejaVuSans-30"/>
       <use xlink:href="#DejaVuSans-2e" x="63.623047"/>
       <use xlink:href="#DejaVuSans-37" x="95.410156"/>
       <use xlink:href="#DejaVuSans-35" x="159.033203"/>
      </g>
     </g>
    </g>
    <g id="xtick_5">
     <g id="line2d_5">
      <g>
       <use xlink:href="#m230ff90d69" x="264.996358" y="304.50101" style="stroke: #000000; stroke-width: 0.8"/>
      </g>
     </g>
     <g id="text_5">
      <!-- 1.00 -->
      <g transform="translate(249.410421 322.138822) scale(0.14 -0.14)">
       <defs>
        <path id="DejaVuSans-31" d="M 794 531 
L 1825 531 
L 1825 4091 
L 703 3866 
L 703 4441 
L 1819 4666 
L 2450 4666 
L 2450 531 
L 3481 531 
L 3481 0 
L 794 0 
L 794 531 
z
" transform="scale(0.015625)"/>
       </defs>
       <use xlink:href="#DejaVuSans-31"/>
       <use xlink:href="#DejaVuSans-2e" x="63.623047"/>
       <use xlink:href="#DejaVuSans-30" x="95.410156"/>
       <use xlink:href="#DejaVuSans-30" x="159.033203"/>
      </g>
     </g>
    </g>
    <g id="xtick_6">
     <g id="line2d_6">
      <g>
       <use xlink:href="#m230ff90d69" x="318.79195" y="304.50101" style="stroke: #000000; stroke-width: 0.8"/>
      </g>
     </g>
     <g id="text_6">
      <!-- 1.25 -->
      <g transform="translate(303.206013 322.138822) scale(0.14 -0.14)">
       <use xlink:href="#DejaVuSans-31"/>
       <use xlink:href="#DejaVuSans-2e" x="63.623047"/>
       <use xlink:href="#DejaVuSans-32" x="95.410156"/>
       <use xlink:href="#DejaVuSans-35" x="159.033203"/>
      </g>
     </g>
    </g>
    <g id="xtick_7">
     <g id="line2d_7">
      <g>
       <use xlink:href="#m230ff90d69" x="372.587542" y="304.50101" style="stroke: #000000; stroke-width: 0.8"/>
      </g>
     </g>
     <g id="text_7">
      <!-- 1.50 -->
      <g transform="translate(357.001605 322.138822) scale(0.14 -0.14)">
       <use xlink:href="#DejaVuSans-31"/>
       <use xlink:href="#DejaVuSans-2e" x="63.623047"/>
       <use xlink:href="#DejaVuSans-35" x="95.410156"/>
       <use xlink:href="#DejaVuSans-30" x="159.033203"/>
      </g>
     </g>
    </g>
    <g id="xtick_8">
     <g id="line2d_8">
      <g>
       <use xlink:href="#m230ff90d69" x="426.383134" y="304.50101" style="stroke: #000000; stroke-width: 0.8"/>
      </g>
     </g>
     <g id="text_8">
      <!-- 1.75 -->
      <g transform="translate(410.797197 322.138822) scale(0.14 -0.14)">
       <use xlink:href="#DejaVuSans-31"/>
       <use xlink:href="#DejaVuSans-2e" x="63.623047"/>
       <use xlink:href="#DejaVuSans-37" x="95.410156"/>
       <use xlink:href="#DejaVuSans-35" x="159.033203"/>
      </g>
     </g>
    </g>
    <g id="text_9">
     <!-- True Strain -->
     <g transform="translate(215.981719 339.688197) scale(0.14 -0.14)">
      <defs>
       <path id="DejaVuSans-54" d="M -19 4666 
L 3928 4666 
L 3928 4134 
L 2272 4134 
L 2272 0 
L 1638 0 
L 1638 4134 
L -19 4134 
L -19 4666 
z
" transform="scale(0.015625)"/>
       <path id="DejaVuSans-72" d="M 2631 2963 
Q 2534 3019 2420 3045 
Q 2306 3072 2169 3072 
Q 1681 3072 1420 2755 
Q 1159 2438 1159 1844 
L 1159 0 
L 581 0 
L 581 3500 
L 1159 3500 
L 1159 2956 
Q 1341 3275 1631 3429 
Q 1922 3584 2338 3584 
Q 2397 3584 2469 3576 
Q 2541 3569 2628 3553 
L 2631 2963 
z
" transform="scale(0.015625)"/>
       <path id="DejaVuSans-75" d="M 544 1381 
L 544 3500 
L 1119 3500 
L 1119 1403 
Q 1119 906 1312 657 
Q 1506 409 1894 409 
Q 2359 409 2629 706 
Q 2900 1003 2900 1516 
L 2900 3500 
L 3475 3500 
L 3475 0 
L 2900 0 
L 2900 538 
Q 2691 219 2414 64 
Q 2138 -91 1772 -91 
Q 1169 -91 856 284 
Q 544 659 544 1381 
z
M 1991 3584 
L 1991 3584 
z
" transform="scale(0.015625)"/>
       <path id="DejaVuSans-65" d="M 3597 1894 
L 3597 1613 
L 953 1613 
Q 991 1019 1311 708 
Q 1631 397 2203 397 
Q 2534 397 2845 478 
Q 3156 559 3463 722 
L 3463 178 
Q 3153 47 2828 -22 
Q 2503 -91 2169 -91 
Q 1331 -91 842 396 
Q 353 884 353 1716 
Q 353 2575 817 3079 
Q 1281 3584 2069 3584 
Q 2775 3584 3186 3129 
Q 3597 2675 3597 1894 
z
M 3022 2063 
Q 3016 2534 2758 2815 
Q 2500 3097 2075 3097 
Q 1594 3097 1305 2825 
Q 1016 2553 972 2059 
L 3022 2063 
z
" transform="scale(0.015625)"/>
       <path id="DejaVuSans-20" transform="scale(0.015625)"/>
       <path id="DejaVuSans-53" d="M 3425 4513 
L 3425 3897 
Q 3066 4069 2747 4153 
Q 2428 4238 2131 4238 
Q 1616 4238 1336 4038 
Q 1056 3838 1056 3469 
Q 1056 3159 1242 3001 
Q 1428 2844 1947 2747 
L 2328 2669 
Q 3034 2534 3370 2195 
Q 3706 1856 3706 1288 
Q 3706 609 3251 259 
Q 2797 -91 1919 -91 
Q 1588 -91 1214 -16 
Q 841 59 441 206 
L 441 856 
Q 825 641 1194 531 
Q 1563 422 1919 422 
Q 2459 422 2753 634 
Q 3047 847 3047 1241 
Q 3047 1584 2836 1778 
Q 2625 1972 2144 2069 
L 1759 2144 
Q 1053 2284 737 2584 
Q 422 2884 422 3419 
Q 422 4038 858 4394 
Q 1294 4750 2059 4750 
Q 2388 4750 2728 4690 
Q 3069 4631 3425 4513 
z
" transform="scale(0.015625)"/>
       <path id="DejaVuSans-74" d="M 1172 4494 
L 1172 3500 
L 2356 3500 
L 2356 3053 
L 1172 3053 
L 1172 1153 
Q 1172 725 1289 603 
Q 1406 481 1766 481 
L 2356 481 
L 2356 0 
L 1766 0 
Q 1100 0 847 248 
Q 594 497 594 1153 
L 594 3053 
L 172 3053 
L 172 3500 
L 594 3500 
L 594 4494 
L 1172 4494 
z
" transform="scale(0.015625)"/>
       <path id="DejaVuSans-61" d="M 2194 1759 
Q 1497 1759 1228 1600 
Q 959 1441 959 1056 
Q 959 750 1161 570 
Q 1363 391 1709 391 
Q 2188 391 2477 730 
Q 2766 1069 2766 1631 
L 2766 1759 
L 2194 1759 
z
M 3341 1997 
L 3341 0 
L 2766 0 
L 2766 531 
Q 2569 213 2275 61 
Q 1981 -91 1556 -91 
Q 1019 -91 701 211 
Q 384 513 384 1019 
Q 384 1609 779 1909 
Q 1175 2209 1959 2209 
L 2766 2209 
L 2766 2266 
Q 2766 2663 2505 2880 
Q 2244 3097 1772 3097 
Q 1472 3097 1187 3025 
Q 903 2953 641 2809 
L 641 3341 
Q 956 3463 1253 3523 
Q 1550 3584 1831 3584 
Q 2591 3584 2966 3190 
Q 3341 2797 3341 1997 
z
" transform="scale(0.015625)"/>
       <path id="DejaVuSans-69" d="M 603 3500 
L 1178 3500 
L 1178 0 
L 603 0 
L 603 3500 
z
M 603 4863 
L 1178 4863 
L 1178 4134 
L 603 4134 
L 603 4863 
z
" transform="scale(0.015625)"/>
       <path id="DejaVuSans-6e" d="M 3513 2113 
L 3513 0 
L 2938 0 
L 2938 2094 
Q 2938 2591 2744 2837 
Q 2550 3084 2163 3084 
Q 1697 3084 1428 2787 
Q 1159 2491 1159 1978 
L 1159 0 
L 581 0 
L 581 3500 
L 1159 3500 
L 1159 2956 
Q 1366 3272 1645 3428 
Q 1925 3584 2291 3584 
Q 2894 3584 3203 3211 
Q 3513 2838 3513 2113 
z
" transform="scale(0.015625)"/>
      </defs>
      <use xlink:href="#DejaVuSans-54"/>
      <use xlink:href="#DejaVuSans-72" x="46.333984"/>
      <use xlink:href="#DejaVuSans-75" x="87.447266"/>
      <use xlink:href="#DejaVuSans-65" x="150.826172"/>
      <use xlink:href="#DejaVuSans-20" x="212.349609"/>
      <use xlink:href="#DejaVuSans-53" x="244.136719"/>
      <use xlink:href="#DejaVuSans-74" x="307.613281"/>
      <use xlink:href="#DejaVuSans-72" x="346.822266"/>
      <use xlink:href="#DejaVuSans-61" x="387.935547"/>
      <use xlink:href="#DejaVuSans-69" x="449.214844"/>
      <use xlink:href="#DejaVuSans-6e" x="476.998047"/>
     </g>
    </g>
   </g>
   <g id="matplotlib.axis_2">
    <g id="ytick_1">
     <g id="line2d_9">
      <defs>
       <path id="mb5b77d302c" d="M 0 0 
L -3.5 0 
" style="stroke: #000000; stroke-width: 0.8"/>
      </defs>
      <g>
       <use xlink:href="#mb5b77d302c" x="49.81399" y="304.50101" style="stroke: #000000; stroke-width: 0.8"/>
      </g>
     </g>
     <g id="text_10">
      <!-- 0.0 -->
      <g transform="translate(20.549615 309.819916) scale(0.14 -0.14)">
       <use xlink:href="#DejaVuSans-30"/>
       <use xlink:href="#DejaVuSans-2e" x="63.623047"/>
       <use xlink:href="#DejaVuSans-30" x="95.410156"/>
      </g>
     </g>
    </g>
    <g id="ytick_2">
     <g id="line2d_10">
      <g>
       <use xlink:href="#mb5b77d302c" x="49.81399" y="248.35464" style="stroke: #000000; stroke-width: 0.8"/>
      </g>
     </g>
     <g id="text_11">
      <!-- 0.1 -->
      <g transform="translate(20.549615 253.673547) scale(0.14 -0.14)">
       <use xlink:href="#DejaVuSans-30"/>
       <use xlink:href="#DejaVuSans-2e" x="63.623047"/>
       <use xlink:href="#DejaVuSans-31" x="95.410156"/>
      </g>
     </g>
    </g>
    <g id="ytick_3">
     <g id="line2d_11">
      <g>
       <use xlink:href="#mb5b77d302c" x="49.81399" y="192.208271" style="stroke: #000000; stroke-width: 0.8"/>
      </g>
     </g>
     <g id="text_12">
      <!-- 0.2 -->
      <g transform="translate(20.549615 197.527177) scale(0.14 -0.14)">
       <use xlink:href="#DejaVuSans-30"/>
       <use xlink:href="#DejaVuSans-2e" x="63.623047"/>
       <use xlink:href="#DejaVuSans-32" x="95.410156"/>
      </g>
     </g>
    </g>
    <g id="ytick_4">
     <g id="line2d_12">
      <g>
       <use xlink:href="#mb5b77d302c" x="49.81399" y="136.061901" style="stroke: #000000; stroke-width: 0.8"/>
      </g>
     </g>
     <g id="text_13">
      <!-- 0.3 -->
      <g transform="translate(20.549615 141.380807) scale(0.14 -0.14)">
       <defs>
        <path id="DejaVuSans-33" d="M 2597 2516 
Q 3050 2419 3304 2112 
Q 3559 1806 3559 1356 
Q 3559 666 3084 287 
Q 2609 -91 1734 -91 
Q 1441 -91 1130 -33 
Q 819 25 488 141 
L 488 750 
Q 750 597 1062 519 
Q 1375 441 1716 441 
Q 2309 441 2620 675 
Q 2931 909 2931 1356 
Q 2931 1769 2642 2001 
Q 2353 2234 1838 2234 
L 1294 2234 
L 1294 2753 
L 1863 2753 
Q 2328 2753 2575 2939 
Q 2822 3125 2822 3475 
Q 2822 3834 2567 4026 
Q 2313 4219 1838 4219 
Q 1578 4219 1281 4162 
Q 984 4106 628 3988 
L 628 4550 
Q 988 4650 1302 4700 
Q 1616 4750 1894 4750 
Q 2613 4750 3031 4423 
Q 3450 4097 3450 3541 
Q 3450 3153 3228 2886 
Q 3006 2619 2597 2516 
z
" transform="scale(0.015625)"/>
       </defs>
       <use xlink:href="#DejaVuSans-30"/>
       <use xlink:href="#DejaVuSans-2e" x="63.623047"/>
       <use xlink:href="#DejaVuSans-33" x="95.410156"/>
      </g>
     </g>
    </g>
    <g id="ytick_5">
     <g id="line2d_13">
      <g>
       <use xlink:href="#mb5b77d302c" x="49.81399" y="79.915531" style="stroke: #000000; stroke-width: 0.8"/>
      </g>
     </g>
     <g id="text_14">
      <!-- 0.4 -->
      <g transform="translate(20.549615 85.234438) scale(0.14 -0.14)">
       <defs>
        <path id="DejaVuSans-34" d="M 2419 4116 
L 825 1625 
L 2419 1625 
L 2419 4116 
z
M 2253 4666 
L 3047 4666 
L 3047 1625 
L 3713 1625 
L 3713 1100 
L 3047 1100 
L 3047 0 
L 2419 0 
L 2419 1100 
L 313 1100 
L 313 1709 
L 2253 4666 
z
" transform="scale(0.015625)"/>
       </defs>
       <use xlink:href="#DejaVuSans-30"/>
       <use xlink:href="#DejaVuSans-2e" x="63.623047"/>
       <use xlink:href="#DejaVuSans-34" x="95.410156"/>
      </g>
     </g>
    </g>
    <g id="ytick_6">
     <g id="line2d_14">
      <g>
       <use xlink:href="#mb5b77d302c" x="49.81399" y="23.769162" style="stroke: #000000; stroke-width: 0.8"/>
      </g>
     </g>
     <g id="text_15">
      <!-- 0.5 -->
      <g transform="translate(20.549615 29.088068) scale(0.14 -0.14)">
       <use xlink:href="#DejaVuSans-30"/>
       <use xlink:href="#DejaVuSans-2e" x="63.623047"/>
       <use xlink:href="#DejaVuSans-35" x="95.410156"/>
      </g>
     </g>
    </g>
    <g id="text_16">
     <!-- Fluorescence Anisotropy -->
     <g transform="translate(13.638052 239.521406) rotate(-90) scale(0.14 -0.14)">
      <defs>
       <path id="DejaVuSans-46" d="M 628 4666 
L 3309 4666 
L 3309 4134 
L 1259 4134 
L 1259 2759 
L 3109 2759 
L 3109 2228 
L 1259 2228 
L 1259 0 
L 628 0 
L 628 4666 
z
" transform="scale(0.015625)"/>
       <path id="DejaVuSans-6c" d="M 603 4863 
L 1178 4863 
L 1178 0 
L 603 0 
L 603 4863 
z
" transform="scale(0.015625)"/>
       <path id="DejaVuSans-6f" d="M 1959 3097 
Q 1497 3097 1228 2736 
Q 959 2375 959 1747 
Q 959 1119 1226 758 
Q 1494 397 1959 397 
Q 2419 397 2687 759 
Q 2956 1122 2956 1747 
Q 2956 2369 2687 2733 
Q 2419 3097 1959 3097 
z
M 1959 3584 
Q 2709 3584 3137 3096 
Q 3566 2609 3566 1747 
Q 3566 888 3137 398 
Q 2709 -91 1959 -91 
Q 1206 -91 779 398 
Q 353 888 353 1747 
Q 353 2609 779 3096 
Q 1206 3584 1959 3584 
z
" transform="scale(0.015625)"/>
       <path id="DejaVuSans-73" d="M 2834 3397 
L 2834 2853 
Q 2591 2978 2328 3040 
Q 2066 3103 1784 3103 
Q 1356 3103 1142 2972 
Q 928 2841 928 2578 
Q 928 2378 1081 2264 
Q 1234 2150 1697 2047 
L 1894 2003 
Q 2506 1872 2764 1633 
Q 3022 1394 3022 966 
Q 3022 478 2636 193 
Q 2250 -91 1575 -91 
Q 1294 -91 989 -36 
Q 684 19 347 128 
L 347 722 
Q 666 556 975 473 
Q 1284 391 1588 391 
Q 1994 391 2212 530 
Q 2431 669 2431 922 
Q 2431 1156 2273 1281 
Q 2116 1406 1581 1522 
L 1381 1569 
Q 847 1681 609 1914 
Q 372 2147 372 2553 
Q 372 3047 722 3315 
Q 1072 3584 1716 3584 
Q 2034 3584 2315 3537 
Q 2597 3491 2834 3397 
z
" transform="scale(0.015625)"/>
       <path id="DejaVuSans-63" d="M 3122 3366 
L 3122 2828 
Q 2878 2963 2633 3030 
Q 2388 3097 2138 3097 
Q 1578 3097 1268 2742 
Q 959 2388 959 1747 
Q 959 1106 1268 751 
Q 1578 397 2138 397 
Q 2388 397 2633 464 
Q 2878 531 3122 666 
L 3122 134 
Q 2881 22 2623 -34 
Q 2366 -91 2075 -91 
Q 1284 -91 818 406 
Q 353 903 353 1747 
Q 353 2603 823 3093 
Q 1294 3584 2113 3584 
Q 2378 3584 2631 3529 
Q 2884 3475 3122 3366 
z
" transform="scale(0.015625)"/>
       <path id="DejaVuSans-41" d="M 2188 4044 
L 1331 1722 
L 3047 1722 
L 2188 4044 
z
M 1831 4666 
L 2547 4666 
L 4325 0 
L 3669 0 
L 3244 1197 
L 1141 1197 
L 716 0 
L 50 0 
L 1831 4666 
z
" transform="scale(0.015625)"/>
       <path id="DejaVuSans-70" d="M 1159 525 
L 1159 -1331 
L 581 -1331 
L 581 3500 
L 1159 3500 
L 1159 2969 
Q 1341 3281 1617 3432 
Q 1894 3584 2278 3584 
Q 2916 3584 3314 3078 
Q 3713 2572 3713 1747 
Q 3713 922 3314 415 
Q 2916 -91 2278 -91 
Q 1894 -91 1617 61 
Q 1341 213 1159 525 
z
M 3116 1747 
Q 3116 2381 2855 2742 
Q 2594 3103 2138 3103 
Q 1681 3103 1420 2742 
Q 1159 2381 1159 1747 
Q 1159 1113 1420 752 
Q 1681 391 2138 391 
Q 2594 391 2855 752 
Q 3116 1113 3116 1747 
z
" transform="scale(0.015625)"/>
       <path id="DejaVuSans-79" d="M 2059 -325 
Q 1816 -950 1584 -1140 
Q 1353 -1331 966 -1331 
L 506 -1331 
L 506 -850 
L 844 -850 
Q 1081 -850 1212 -737 
Q 1344 -625 1503 -206 
L 1606 56 
L 191 3500 
L 800 3500 
L 1894 763 
L 2988 3500 
L 3597 3500 
L 2059 -325 
z
" transform="scale(0.015625)"/>
      </defs>
      <use xlink:href="#DejaVuSans-46"/>
      <use xlink:href="#DejaVuSans-6c" x="57.519531"/>
      <use xlink:href="#DejaVuSans-75" x="85.302734"/>
      <use xlink:href="#DejaVuSans-6f" x="148.681641"/>
      <use xlink:href="#DejaVuSans-72" x="209.863281"/>
      <use xlink:href="#DejaVuSans-65" x="248.726562"/>
      <use xlink:href="#DejaVuSans-73" x="310.25"/>
      <use xlink:href="#DejaVuSans-63" x="362.349609"/>
      <use xlink:href="#DejaVuSans-65" x="417.330078"/>
      <use xlink:href="#DejaVuSans-6e" x="478.853516"/>
      <use xlink:href="#DejaVuSans-63" x="542.232422"/>
      <use xlink:href="#DejaVuSans-65" x="597.212891"/>
      <use xlink:href="#DejaVuSans-20" x="658.736328"/>
      <use xlink:href="#DejaVuSans-41" x="690.523438"/>
      <use xlink:href="#DejaVuSans-6e" x="758.931641"/>
      <use xlink:href="#DejaVuSans-69" x="822.310547"/>
      <use xlink:href="#DejaVuSans-73" x="850.09375"/>
      <use xlink:href="#DejaVuSans-6f" x="902.193359"/>
      <use xlink:href="#DejaVuSans-74" x="963.375"/>
      <use xlink:href="#DejaVuSans-72" x="1002.583984"/>
      <use xlink:href="#DejaVuSans-6f" x="1041.447266"/>
      <use xlink:href="#DejaVuSans-70" x="1102.628906"/>
      <use xlink:href="#DejaVuSans-79" x="1166.105469"/>
     </g>
    </g>
   </g>
   <g id="line2d_15">
    <defs>
     <path id="mb5d7a96c4d" d="M -3 3 
L 3 3 
L 3 -3 
L -3 -3 
z
" style="stroke: #000000; stroke-linejoin: miter"/>
    </defs>
    <g clip-path="url(#p3b807f90b7)">
     <use xlink:href="#mb5d7a96c4d" x="49.81399" y="232.490943" style="stroke: #000000; stroke-linejoin: miter"/>
     <use xlink:href="#mb5d7a96c4d" x="88.546816" y="198.409958" style="stroke: #000000; stroke-linejoin: miter"/>
     <use xlink:href="#mb5d7a96c4d" x="118.672348" y="177.591586" style="stroke: #000000; stroke-linejoin: miter"/>
     <use xlink:href="#mb5d7a96c4d" x="133.735114" y="161.412184" style="stroke: #000000; stroke-linejoin: miter"/>
     <use xlink:href="#mb5d7a96c4d" x="176.771587" y="127.073917" style="stroke: #000000; stroke-linejoin: miter"/>
     <use xlink:href="#mb5d7a96c4d" x="206.897119" y="109.1704" style="stroke: #000000; stroke-linejoin: miter"/>
     <use xlink:href="#mb5d7a96c4d" x="267.148182" y="79.463445" style="stroke: #000000; stroke-linejoin: miter"/>
     <use xlink:href="#mb5d7a96c4d" x="355.372953" y="65.427257" style="stroke: #000000; stroke-linejoin: miter"/>
     <use xlink:href="#mb5d7a96c4d" x="389.802132" y="53.250368" style="stroke: #000000; stroke-linejoin: miter"/>
    </g>
   </g>
   <g id="line2d_16">
    <path d="M 49.81399 232.490943 
L 53.248214 228.823791 
L 56.682437 225.216704 
L 60.116661 221.668698 
L 63.550885 218.178808 
L 66.985108 214.746079 
L 70.419332 211.369577 
L 73.853556 208.04838 
L 77.287779 204.781582 
L 80.722003 201.568292 
L 84.156227 198.407634 
L 87.59045 195.298746 
L 91.024674 192.24078 
L 94.458897 189.232901 
L 97.893121 186.27429 
L 101.327345 183.364139 
L 104.761568 180.501655 
L 108.195792 177.686056 
L 111.630016 174.916575 
L 115.064239 172.192457 
L 118.498463 169.512958 
L 121.932687 166.877348 
L 125.36691 164.284908 
L 128.801134 161.73493 
L 132.235358 159.226719 
L 135.669581 156.759592 
L 139.103805 154.332875 
L 142.538029 151.945905 
L 145.972252 149.598033 
L 149.406476 147.288618 
L 152.8407 145.01703 
L 156.274923 142.782649 
L 159.709147 140.584865 
L 163.143371 138.42308 
L 166.577594 136.296704 
L 170.011818 134.205157 
L 173.446042 132.147868 
L 176.880265 130.124277 
L 180.314489 128.13383 
L 183.748712 126.175986 
L 187.182936 124.25021 
L 190.61716 122.355978 
L 194.051383 120.492771 
L 197.485607 118.660083 
L 200.919831 116.857414 
L 204.354054 115.084271 
L 207.788278 113.340171 
L 211.222502 111.624638 
L 214.656725 109.937205 
L 218.090949 108.277411 
L 221.525173 106.644803 
L 224.959396 105.038937 
L 228.39362 103.459374 
L 231.827844 101.905683 
L 235.262067 100.377441 
L 238.696291 98.87423 
L 242.130515 97.395641 
L 245.564738 95.941271 
L 248.998962 94.510722 
L 252.433186 93.103605 
L 255.867409 91.719535 
L 259.301633 90.358136 
L 262.735856 89.019036 
L 266.17008 87.701869 
L 269.604304 86.406277 
L 273.038527 85.131906 
L 276.472751 83.878409 
L 279.906975 82.645442 
L 283.341198 81.432672 
L 286.775422 80.239765 
L 290.209646 79.066398 
L 293.643869 77.91225 
L 297.078093 76.777006 
L 300.512317 75.660357 
L 303.94654 74.561998 
L 307.380764 73.481629 
L 310.814988 72.418956 
L 314.249211 71.373689 
L 317.683435 70.345543 
L 321.117659 69.334237 
L 324.551882 68.339496 
L 327.986106 67.361049 
L 331.42033 66.398627 
L 334.854553 65.45197 
L 338.288777 64.520818 
L 341.723001 63.604918 
L 345.157224 62.70402 
L 348.591448 61.817878 
L 352.025671 60.946251 
L 355.459895 60.0889 
L 358.894119 59.245592 
L 362.328342 58.416097 
L 365.762566 57.600189 
L 369.19679 56.797645 
L 372.631013 56.008246 
L 376.065237 55.231777 
L 379.499461 54.468026 
L 382.933684 53.716785 
L 386.367908 52.977849 
L 389.802132 52.251016 
" clip-path="url(#p3b807f90b7)" style="fill: none; stroke-dasharray: 5.55,2.4; stroke-dashoffset: 0; stroke: #ff0000; stroke-width: 1.5"/>
   </g>
   <g id="patch_3">
    <path d="M 49.81399 304.50101 
L 49.81399 3.00024 
" style="fill: none; stroke: #000000; stroke-width: 0.8; stroke-linejoin: miter; stroke-linecap: square"/>
   </g>
   <g id="patch_4">
    <path d="M 457.79976 304.50101 
L 457.79976 3.00024 
" style="fill: none; stroke: #000000; stroke-width: 0.8; stroke-linejoin: miter; stroke-linecap: square"/>
   </g>
   <g id="patch_5">
    <path d="M 49.81399 304.50101 
L 457.79976 304.50101 
" style="fill: none; stroke: #000000; stroke-width: 0.8; stroke-linejoin: miter; stroke-linecap: square"/>
   </g>
   <g id="patch_6">
    <path d="M 49.81399 3.00024 
L 457.79976 3.00024 
" style="fill: none; stroke: #000000; stroke-width: 0.8; stroke-linejoin: miter; stroke-linecap: square"/>
   </g>
   <g id="legend_1">
    <g id="patch_7">
     <path d="M 255.77976 297.50101 
L 447.99976 297.50101 
Q 450.79976 297.50101 450.79976 294.70101 
L 450.79976 254.971635 
Q 450.79976 252.171635 447.99976 252.171635 
L 255.77976 252.171635 
Q 252.97976 252.171635 252.97976 254.971635 
L 252.97976 294.70101 
Q 252.97976 297.50101 255.77976 297.50101 
z
" style="fill: #ffffff; opacity: 0.8; stroke: #cccccc; stroke-linejoin: miter"/>
    </g>
    <g id="line2d_17">
     <path d="M 258.57976 263.509447 
L 272.57976 263.509447 
L 286.57976 263.509447 
" style="fill: none; stroke-dasharray: 5.55,2.4; stroke-dashoffset: 0; stroke: #ff0000; stroke-width: 1.5"/>
    </g>
    <g id="text_17">
     <!-- Exponential model -->
     <g transform="translate(297.77976 268.409447) scale(0.14 -0.14)">
      <defs>
       <path id="DejaVuSans-45" d="M 628 4666 
L 3578 4666 
L 3578 4134 
L 1259 4134 
L 1259 2753 
L 3481 2753 
L 3481 2222 
L 1259 2222 
L 1259 531 
L 3634 531 
L 3634 0 
L 628 0 
L 628 4666 
z
" transform="scale(0.015625)"/>
       <path id="DejaVuSans-78" d="M 3513 3500 
L 2247 1797 
L 3578 0 
L 2900 0 
L 1881 1375 
L 863 0 
L 184 0 
L 1544 1831 
L 300 3500 
L 978 3500 
L 1906 2253 
L 2834 3500 
L 3513 3500 
z
" transform="scale(0.015625)"/>
       <path id="DejaVuSans-6d" d="M 3328 2828 
Q 3544 3216 3844 3400 
Q 4144 3584 4550 3584 
Q 5097 3584 5394 3201 
Q 5691 2819 5691 2113 
L 5691 0 
L 5113 0 
L 5113 2094 
Q 5113 2597 4934 2840 
Q 4756 3084 4391 3084 
Q 3944 3084 3684 2787 
Q 3425 2491 3425 1978 
L 3425 0 
L 2847 0 
L 2847 2094 
Q 2847 2600 2669 2842 
Q 2491 3084 2119 3084 
Q 1678 3084 1418 2786 
Q 1159 2488 1159 1978 
L 1159 0 
L 581 0 
L 581 3500 
L 1159 3500 
L 1159 2956 
Q 1356 3278 1631 3431 
Q 1906 3584 2284 3584 
Q 2666 3584 2933 3390 
Q 3200 3197 3328 2828 
z
" transform="scale(0.015625)"/>
       <path id="DejaVuSans-64" d="M 2906 2969 
L 2906 4863 
L 3481 4863 
L 3481 0 
L 2906 0 
L 2906 525 
Q 2725 213 2448 61 
Q 2172 -91 1784 -91 
Q 1150 -91 751 415 
Q 353 922 353 1747 
Q 353 2572 751 3078 
Q 1150 3584 1784 3584 
Q 2172 3584 2448 3432 
Q 2725 3281 2906 2969 
z
M 947 1747 
Q 947 1113 1208 752 
Q 1469 391 1925 391 
Q 2381 391 2643 752 
Q 2906 1113 2906 1747 
Q 2906 2381 2643 2742 
Q 2381 3103 1925 3103 
Q 1469 3103 1208 2742 
Q 947 2381 947 1747 
z
" transform="scale(0.015625)"/>
      </defs>
      <use xlink:href="#DejaVuSans-45"/>
      <use xlink:href="#DejaVuSans-78" x="63.183594"/>
      <use xlink:href="#DejaVuSans-70" x="122.363281"/>
      <use xlink:href="#DejaVuSans-6f" x="185.839844"/>
      <use xlink:href="#DejaVuSans-6e" x="247.021484"/>
      <use xlink:href="#DejaVuSans-65" x="310.400391"/>
      <use xlink:href="#DejaVuSans-6e" x="371.923828"/>
      <use xlink:href="#DejaVuSans-74" x="435.302734"/>
      <use xlink:href="#DejaVuSans-69" x="474.511719"/>
      <use xlink:href="#DejaVuSans-61" x="502.294922"/>
      <use xlink:href="#DejaVuSans-6c" x="563.574219"/>
      <use xlink:href="#DejaVuSans-20" x="591.357422"/>
      <use xlink:href="#DejaVuSans-6d" x="623.144531"/>
      <use xlink:href="#DejaVuSans-6f" x="720.556641"/>
      <use xlink:href="#DejaVuSans-64" x="781.738281"/>
      <use xlink:href="#DejaVuSans-65" x="845.214844"/>
      <use xlink:href="#DejaVuSans-6c" x="906.738281"/>
     </g>
    </g>
    <g id="patch_8">
     <path d="M 258.57976 288.96101 
L 286.57976 288.96101 
L 286.57976 279.16101 
L 258.57976 279.16101 
z
" style="fill: #cccccc; stroke: #cccccc; stroke-linejoin: miter"/>
    </g>
    <g id="text_18">
     <!-- 2-$\sigma$ uncertainty band -->
     <g transform="translate(297.77976 288.96101) scale(0.14 -0.14)">
      <defs>
       <path id="DejaVuSans-2d" d="M 313 2009 
L 1997 2009 
L 1997 1497 
L 313 1497 
L 313 2009 
z
" transform="scale(0.015625)"/>
       <path id="DejaVuSans-Oblique-3c3" d="M 2219 3044 
Q 1744 3044 1422 2700 
Q 1081 2341 969 1747 
Q 844 1119 1044 756 
Q 1241 397 1706 397 
Q 2166 397 2503 759 
Q 2844 1122 2966 1747 
Q 3075 2319 2881 2700 
Q 2700 3044 2219 3044 
z
M 2309 3503 
L 4219 3500 
L 4106 2925 
L 3463 2925 
Q 3706 2438 3575 1747 
Q 3406 888 2884 400 
Q 2359 -91 1609 -91 
Q 856 -91 525 400 
Q 194 888 363 1747 
Q 528 2609 1050 3097 
Q 1484 3503 2309 3503 
z
" transform="scale(0.015625)"/>
       <path id="DejaVuSans-62" d="M 3116 1747 
Q 3116 2381 2855 2742 
Q 2594 3103 2138 3103 
Q 1681 3103 1420 2742 
Q 1159 2381 1159 1747 
Q 1159 1113 1420 752 
Q 1681 391 2138 391 
Q 2594 391 2855 752 
Q 3116 1113 3116 1747 
z
M 1159 2969 
Q 1341 3281 1617 3432 
Q 1894 3584 2278 3584 
Q 2916 3584 3314 3078 
Q 3713 2572 3713 1747 
Q 3713 922 3314 415 
Q 2916 -91 2278 -91 
Q 1894 -91 1617 61 
Q 1341 213 1159 525 
L 1159 0 
L 581 0 
L 581 4863 
L 1159 4863 
L 1159 2969 
z
" transform="scale(0.015625)"/>
      </defs>
      <use xlink:href="#DejaVuSans-32" transform="translate(0 0.015625)"/>
      <use xlink:href="#DejaVuSans-2d" transform="translate(63.623047 0.015625)"/>
      <use xlink:href="#DejaVuSans-Oblique-3c3" transform="translate(99.707031 0.015625)"/>
      <use xlink:href="#DejaVuSans-20" transform="translate(163.085938 0.015625)"/>
      <use xlink:href="#DejaVuSans-75" transform="translate(194.873047 0.015625)"/>
      <use xlink:href="#DejaVuSans-6e" transform="translate(258.251953 0.015625)"/>
      <use xlink:href="#DejaVuSans-63" transform="translate(321.630859 0.015625)"/>
      <use xlink:href="#DejaVuSans-65" transform="translate(376.611328 0.015625)"/>
      <use xlink:href="#DejaVuSans-72" transform="translate(438.134766 0.015625)"/>
      <use xlink:href="#DejaVuSans-74" transform="translate(479.248047 0.015625)"/>
      <use xlink:href="#DejaVuSans-61" transform="translate(518.457031 0.015625)"/>
      <use xlink:href="#DejaVuSans-69" transform="translate(579.736328 0.015625)"/>
      <use xlink:href="#DejaVuSans-6e" transform="translate(607.519531 0.015625)"/>
      <use xlink:href="#DejaVuSans-74" transform="translate(670.898438 0.015625)"/>
      <use xlink:href="#DejaVuSans-79" transform="translate(710.107422 0.015625)"/>
      <use xlink:href="#DejaVuSans-20" transform="translate(769.287109 0.015625)"/>
      <use xlink:href="#DejaVuSans-62" transform="translate(801.074219 0.015625)"/>
      <use xlink:href="#DejaVuSans-61" transform="translate(864.550781 0.015625)"/>
      <use xlink:href="#DejaVuSans-6e" transform="translate(925.830078 0.015625)"/>
      <use xlink:href="#DejaVuSans-64" transform="translate(989.208984 0.015625)"/>
     </g>
    </g>
   </g>
  </g>
 </g>
 <defs>
  <clipPath id="p3b807f90b7">
   <rect x="49.81399" y="3.00024" width="407.98577" height="301.50077"/>
  </clipPath>
 </defs>
</svg>
