<?xml version="1.0" encoding="utf-8" standalone="no"?>
<!DOCTYPE svg PUBLIC "-//W3C//DTD SVG 1.1//EN"
  "http://www.w3.org/Graphics/SVG/1.1/DTD/svg11.dtd">
<svg xmlns:xlink="http://www.w3.org/1999/xlink" width="460.8pt" height="345.6pt" viewBox="0 0 460.8 345.6" xmlns="http://www.w3.org/2000/svg" version="1.1">
 <metadata>
  <rdf:RDF xmlns:dc="http://purl.org/dc/elements/1.1/" xmlns:cc="http://creativecommons.org/ns#" xmlns:rdf="http://www.w3.org/1999/02/22-rdf-syntax-ns#">
   <cc:Work>
    <dc:type rdf:resource="http://purl.org/dc/dcmitype/StillImage"/>
    <dc:date>2024-11-23T21:58:17.952591</dc:date>
    <dc:format>image/svg+xml</dc:format>
    <dc:creator>
     <cc:Agent>
      <dc:title>Matplotlib v3.9.2, https://matplotlib.org/</dc:title>
     </cc:Agent>
    </dc:creator>
   </cc:Work>
  </rdf:RDF>
 </metadata>
 <defs>
  <style type="text/css">*{stroke-linejoin: round; stroke-linecap: butt}</style>
 </defs>
 <g id="figure_1">
  <g id="patch_1">
   <path d="M 0 345.6 
L 460.8 345.6 
L 460.8 0 
L 0 0 
z
" style="fill: #ffffff"/>
  </g>
  <g id="axes_1">
   <g id="patch_2">
    <path d="M 49.81399 304.50101 
L 457.79976 304.50101 
L 457.79976 3.00024 
L 49.81399 3.00024 
z
" style="fill: #ffffff"/>
   </g>
   <g id="matplotlib.axis_1">
    <g id="xtick_1">
     <g id="line2d_1">
      <defs>
       <path id="m6d272a7d04" d="M 0 0 
L 0 3.5 
" style="stroke: #000000; stroke-width: 0.8"/>
      </defs>
      <g>
       <use xlink:href="#m6d272a7d04" x="49.81399" y="304.50101" style="stroke: #000000; stroke-width: 0.8"/>
      </g>
     </g>
     <g id="text_1">
      <!-- 0.00 -->
      <g transform="translate(34.228053 322.138822) scale(0.14 -0.14)">
       <defs>
        <path id="DejaVuSans-30" d="M 2034 4250 
Q 1547 4250 1301 3770 
Q 1056 3291 1056 2328 
Q 1056 1369 1301 889 
Q 1547 409 2034 409 
Q 2525 409 2770 889 
Q 3016 1369 3016 2328 
Q 3016 3291 2770 3770 
Q 2525 4250 2034 4250 
z
M 2034 4750 
Q 2819 4750 3233 4129 
Q 3647 3509 3647 2328 
Q 3647 1150 3233 529 
Q 2819 -91 2034 -91 
Q 1250 -91 836 529 
Q 422 1150 422 2328 
Q 422 3509 836 4129 
Q 1250 4750 2034 4750 
z
" transform="scale(0.015625)"/>
        <path id="DejaVuSans-2e" d="M 684 794 
L 1344 794 
L 1344 0 
L 684 0 
L 684 794 
z
" transform="scale(0.015625)"/>
       </defs>
       <use xlink:href="#DejaVuSans-30"/>
       <use xlink:href="#DejaVuSans-2e" x="63.623047"/>
       <use xlink:href="#DejaVuSans-30" x="95.410156"/>
       <use xlink:href="#DejaVuSans-30" x="159.033203"/>
      </g>
     </g>
    </g>
    <g id="xtick_2">
     <g id="line2d_2">
      <g>
       <use xlink:href="#m6d272a7d04" x="103.609582" y="304.50101" style="stroke: #000000; stroke-width: 0.8"/>
      </g>
     </g>
     <g id="text_2">
      <!-- 0.25 -->
      <g transform="translate(88.023645 322.138822) scale(0.14 -0.14)">
       <defs>
        <path id="DejaVuSans-32" d="M 1228 531 
L 3431 531 
L 3431 0 
L 469 0 
L 469 531 
Q 828 903 1448 1529 
Q 2069 2156 2228 2338 
Q 2531 2678 2651 2914 
Q 2772 3150 2772 3378 
Q 2772 3750 2511 3984 
Q 2250 4219 1831 4219 
Q 1534 4219 1204 4116 
Q 875 4013 500 3803 
L 500 4441 
Q 881 4594 1212 4672 
Q 1544 4750 1819 4750 
Q 2544 4750 2975 4387 
Q 3406 4025 3406 3419 
Q 3406 3131 3298 2873 
Q 3191 2616 2906 2266 
Q 2828 2175 2409 1742 
Q 1991 1309 1228 531 
z
" transform="scale(0.015625)"/>
        <path id="DejaVuSans-35" d="M 691 4666 
L 3169 4666 
L 3169 4134 
L 1269 4134 
L 1269 2991 
Q 1406 3038 1543 3061 
Q 1681 3084 1819 3084 
Q 2600 3084 3056 2656 
Q 3513 2228 3513 1497 
Q 3513 744 3044 326 
Q 2575 -91 1722 -91 
Q 1428 -91 1123 -41 
Q 819 9 494 109 
L 494 744 
Q 775 591 1075 516 
Q 1375 441 1709 441 
Q 2250 441 2565 725 
Q 2881 1009 2881 1497 
Q 2881 1984 2565 2268 
Q 2250 2553 1709 2553 
Q 1456 2553 1204 2497 
Q 953 2441 691 2322 
L 691 4666 
z
" transform="scale(0.015625)"/>
       </defs>
       <use xlink:href="#DejaVuSans-30"/>
       <use xlink:href="#DejaVuSans-2e" x="63.623047"/>
       <use xlink:href="#DejaVuSans-32" x="95.410156"/>
       <use xlink:href="#DejaVuSans-35" x="159.033203"/>
      </g>
     </g>
    </g>
    <g id="xtick_3">
     <g id="line2d_3">
      <g>
       <use xlink:href="#m6d272a7d04" x="157.405174" y="304.50101" style="stroke: #000000; stroke-width: 0.8"/>
      </g>
     </g>
     <g id="text_3">
      <!-- 0.50 -->
      <g transform="translate(141.819237 322.138822) scale(0.14 -0.14)">
       <use xlink:href="#DejaVuSans-30"/>
       <use xlink:href="#DejaVuSans-2e" x="63.623047"/>
       <use xlink:href="#DejaVuSans-35" x="95.410156"/>
       <use xlink:href="#DejaVuSans-30" x="159.033203"/>
      </g>
     </g>
    </g>
    <g id="xtick_4">
     <g id="line2d_4">
      <g>
       <use xlink:href="#m6d272a7d04" x="211.200766" y="304.50101" style="stroke: #000000; stroke-width: 0.8"/>
      </g>
     </g>
     <g id="text_4">
      <!-- 0.75 -->
      <g transform="translate(195.614829 322.138822) scale(0.14 -0.14)">
       <defs>
        <path id="DejaVuSans-37" d="M 525 4666 
L 3525 4666 
L 3525 4397 
L 1831 0 
L 1172 0 
L 2766 4134 
L 525 4134 
L 525 4666 
z
" transform="scale(0.015625)"/>
       </defs>
       <use xlink:href="#DejaVuSans-30"/>
       <use xlink:href="#DejaVuSans-2e" x="63.623047"/>
       <use xlink:href="#DejaVuSans-37" x="95.410156"/>
       <use xlink:href="#DejaVuSans-35" x="159.033203"/>
      </g>
     </g>
    </g>
    <g id="xtick_5">
     <g id="line2d_5">
      <g>
       <use xlink:href="#m6d272a7d04" x="264.996358" y="304.50101" style="stroke: #000000; stroke-width: 0.8"/>
      </g>
     </g>
     <g id="text_5">
      <!-- 1.00 -->
      <g transform="translate(249.410421 322.138822) scale(0.14 -0.14)">
       <defs>
        <path id="DejaVuSans-31" d="M 794 531 
L 1825 531 
L 1825 4091 
L 703 3866 
L 703 4441 
L 1819 4666 
L 2450 4666 
L 2450 531 
L 3481 531 
L 3481 0 
L 794 0 
L 794 531 
z
" transform="scale(0.015625)"/>
       </defs>
       <use xlink:href="#DejaVuSans-31"/>
       <use xlink:href="#DejaVuSans-2e" x="63.623047"/>
       <use xlink:href="#DejaVuSans-30" x="95.410156"/>
       <use xlink:href="#DejaVuSans-30" x="159.033203"/>
      </g>
     </g>
    </g>
    <g id="xtick_6">
     <g id="line2d_6">
      <g>
       <use xlink:href="#m6d272a7d04" x="318.79195" y="304.50101" style="stroke: #000000; stroke-width: 0.8"/>
      </g>
     </g>
     <g id="text_6">
      <!-- 1.25 -->
      <g transform="translate(303.206013 322.138822) scale(0.14 -0.14)">
       <use xlink:href="#DejaVuSans-31"/>
       <use xlink:href="#DejaVuSans-2e" x="63.623047"/>
       <use xlink:href="#DejaVuSans-32" x="95.410156"/>
       <use xlink:href="#DejaVuSans-35" x="159.033203"/>
      </g>
     </g>
    </g>
    <g id="xtick_7">
     <g id="line2d_7">
      <g>
       <use xlink:href="#m6d272a7d04" x="372.587542" y="304.50101" style="stroke: #000000; stroke-width: 0.8"/>
      </g>
     </g>
     <g id="text_7">
      <!-- 1.50 -->
      <g transform="translate(357.001605 322.138822) scale(0.14 -0.14)">
       <use xlink:href="#DejaVuSans-31"/>
       <use xlink:href="#DejaVuSans-2e" x="63.623047"/>
       <use xlink:href="#DejaVuSans-35" x="95.410156"/>
       <use xlink:href="#DejaVuSans-30" x="159.033203"/>
      </g>
     </g>
    </g>
    <g id="xtick_8">
     <g id="line2d_8">
      <g>
       <use xlink:href="#m6d272a7d04" x="426.383134" y="304.50101" style="stroke: #000000; stroke-width: 0.8"/>
      </g>
     </g>
     <g id="text_8">
      <!-- 1.75 -->
      <g transform="translate(410.797197 322.138822) scale(0.14 -0.14)">
       <use xlink:href="#DejaVuSans-31"/>
       <use xlink:href="#DejaVuSans-2e" x="63.623047"/>
       <use xlink:href="#DejaVuSans-37" x="95.410156"/>
       <use xlink:href="#DejaVuSans-35" x="159.033203"/>
      </g>
     </g>
    </g>
    <g id="text_9">
     <!-- True Strain -->
     <g transform="translate(215.981719 339.688197) scale(0.14 -0.14)">
      <defs>
       <path id="DejaVuSans-54" d="M -19 4666 
L 3928 4666 
L 3928 4134 
L 2272 4134 
L 2272 0 
L 1638 0 
L 1638 4134 
L -19 4134 
L -19 4666 
z
" transform="scale(0.015625)"/>
       <path id="DejaVuSans-72" d="M 2631 2963 
Q 2534 3019 2420 3045 
Q 2306 3072 2169 3072 
Q 1681 3072 1420 2755 
Q 1159 2438 1159 1844 
L 1159 0 
L 581 0 
L 581 3500 
L 1159 3500 
L 1159 2956 
Q 1341 3275 1631 3429 
Q 1922 3584 2338 3584 
Q 2397 3584 2469 3576 
Q 2541 3569 2628 3553 
L 2631 2963 
z
" transform="scale(0.015625)"/>
       <path id="DejaVuSans-75" d="M 544 1381 
L 544 3500 
L 1119 3500 
L 1119 1403 
Q 1119 906 1312 657 
Q 1506 409 1894 409 
Q 2359 409 2629 706 
Q 2900 1003 2900 1516 
L 2900 3500 
L 3475 3500 
L 3475 0 
L 2900 0 
L 2900 538 
Q 2691 219 2414 64 
Q 2138 -91 1772 -91 
Q 1169 -91 856 284 
Q 544 659 544 1381 
z
M 1991 3584 
L 1991 3584 
z
" transform="scale(0.015625)"/>
       <path id="DejaVuSans-65" d="M 3597 1894 
L 3597 1613 
L 953 1613 
Q 991 1019 1311 708 
Q 1631 397 2203 397 
Q 2534 397 2845 478 
Q 3156 559 3463 722 
L 3463 178 
Q 3153 47 2828 -22 
Q 2503 -91 2169 -91 
Q 1331 -91 842 396 
Q 353 884 353 1716 
Q 353 2575 817 3079 
Q 1281 3584 2069 3584 
Q 2775 3584 3186 3129 
Q 3597 2675 3597 1894 
z
M 3022 2063 
Q 3016 2534 2758 2815 
Q 2500 3097 2075 3097 
Q 1594 3097 1305 2825 
Q 1016 2553 972 2059 
L 3022 2063 
z
" transform="scale(0.015625)"/>
       <path id="DejaVuSans-20" transform="scale(0.015625)"/>
       <path id="DejaVuSans-53" d="M 3425 4513 
L 3425 3897 
Q 3066 4069 2747 4153 
Q 2428 4238 2131 4238 
Q 1616 4238 1336 4038 
Q 1056 3838 1056 3469 
Q 1056 3159 1242 3001 
Q 1428 2844 1947 2747 
L 2328 2669 
Q 3034 2534 3370 2195 
Q 3706 1856 3706 1288 
Q 3706 609 3251 259 
Q 2797 -91 1919 -91 
Q 1588 -91 1214 -16 
Q 841 59 441 206 
L 441 856 
Q 825 641 1194 531 
Q 1563 422 1919 422 
Q 2459 422 2753 634 
Q 3047 847 3047 1241 
Q 3047 1584 2836 1778 
Q 2625 1972 2144 2069 
L 1759 2144 
Q 1053 2284 737 2584 
Q 422 2884 422 3419 
Q 422 4038 858 4394 
Q 1294 4750 2059 4750 
Q 2388 4750 2728 4690 
Q 3069 4631 3425 4513 
z
" transform="scale(0.015625)"/>
       <path id="DejaVuSans-74" d="M 1172 4494 
L 1172 3500 
L 2356 3500 
L 2356 3053 
L 1172 3053 
L 1172 1153 
Q 1172 725 1289 603 
Q 1406 481 1766 481 
L 2356 481 
L 2356 0 
L 1766 0 
Q 1100 0 847 248 
Q 594 497 594 1153 
L 594 3053 
L 172 3053 
L 172 3500 
L 594 3500 
L 594 4494 
L 1172 4494 
z
" transform="scale(0.015625)"/>
       <path id="DejaVuSans-61" d="M 2194 1759 
Q 1497 1759 1228 1600 
Q 959 1441 959 1056 
Q 959 750 1161 570 
Q 1363 391 1709 391 
Q 2188 391 2477 730 
Q 2766 1069 2766 1631 
L 2766 1759 
L 2194 1759 
z
M 3341 1997 
L 3341 0 
L 2766 0 
L 2766 531 
Q 2569 213 2275 61 
Q 1981 -91 1556 -91 
Q 1019 -91 701 211 
Q 384 513 384 1019 
Q 384 1609 779 1909 
Q 1175 2209 1959 2209 
L 2766 2209 
L 2766 2266 
Q 2766 2663 2505 2880 
Q 2244 3097 1772 3097 
Q 1472 3097 1187 3025 
Q 903 2953 641 2809 
L 641 3341 
Q 956 3463 1253 3523 
Q 1550 3584 1831 3584 
Q 2591 3584 2966 3190 
Q 3341 2797 3341 1997 
z
" transform="scale(0.015625)"/>
       <path id="DejaVuSans-69" d="M 603 3500 
L 1178 3500 
L 1178 0 
L 603 0 
L 603 3500 
z
M 603 4863 
L 1178 4863 
L 1178 4134 
L 603 4134 
L 603 4863 
z
" transform="scale(0.015625)"/>
       <path id="DejaVuSans-6e" d="M 3513 2113 
L 3513 0 
L 2938 0 
L 2938 2094 
Q 2938 2591 2744 2837 
Q 2550 3084 2163 3084 
Q 1697 3084 1428 2787 
Q 1159 2491 1159 1978 
L 1159 0 
L 581 0 
L 581 3500 
L 1159 3500 
L 1159 2956 
Q 1366 3272 1645 3428 
Q 1925 3584 2291 3584 
Q 2894 3584 3203 3211 
Q 3513 2838 3513 2113 
z
" transform="scale(0.015625)"/>
      </defs>
      <use xlink:href="#DejaVuSans-54"/>
      <use xlink:href="#DejaVuSans-72" x="46.333984"/>
      <use xlink:href="#DejaVuSans-75" x="87.447266"/>
      <use xlink:href="#DejaVuSans-65" x="150.826172"/>
      <use xlink:href="#DejaVuSans-20" x="212.349609"/>
      <use xlink:href="#DejaVuSans-53" x="244.136719"/>
      <use xlink:href="#DejaVuSans-74" x="307.613281"/>
      <use xlink:href="#DejaVuSans-72" x="346.822266"/>
      <use xlink:href="#DejaVuSans-61" x="387.935547"/>
      <use xlink:href="#DejaVuSans-69" x="449.214844"/>
      <use xlink:href="#DejaVuSans-6e" x="476.998047"/>
     </g>
    </g>
   </g>
   <g id="matplotlib.axis_2">
    <g id="ytick_1">
     <g id="line2d_9">
      <defs>
       <path id="m34757f69c6" d="M 0 0 
L -3.5 0 
" style="stroke: #000000; stroke-width: 0.8"/>
      </defs>
      <g>
       <use xlink:href="#m34757f69c6" x="49.81399" y="304.50101" style="stroke: #000000; stroke-width: 0.8"/>
      </g>
     </g>
     <g id="text_10">
      <!-- 0.0 -->
      <g transform="translate(20.549615 309.819916) scale(0.14 -0.14)">
       <use xlink:href="#DejaVuSans-30"/>
       <use xlink:href="#DejaVuSans-2e" x="63.623047"/>
       <use xlink:href="#DejaVuSans-30" x="95.410156"/>
      </g>
     </g>
    </g>
    <g id="ytick_2">
     <g id="line2d_10">
      <g>
       <use xlink:href="#m34757f69c6" x="49.81399" y="248.35464" style="stroke: #000000; stroke-width: 0.8"/>
      </g>
     </g>
     <g id="text_11">
      <!-- 0.1 -->
      <g transform="translate(20.549615 253.673547) scale(0.14 -0.14)">
       <use xlink:href="#DejaVuSans-30"/>
       <use xlink:href="#DejaVuSans-2e" x="63.623047"/>
       <use xlink:href="#DejaVuSans-31" x="95.410156"/>
      </g>
     </g>
    </g>
    <g id="ytick_3">
     <g id="line2d_11">
      <g>
       <use xlink:href="#m34757f69c6" x="49.81399" y="192.208271" style="stroke: #000000; stroke-width: 0.8"/>
      </g>
     </g>
     <g id="text_12">
      <!-- 0.2 -->
      <g transform="translate(20.549615 197.527177) scale(0.14 -0.14)">
       <use xlink:href="#DejaVuSans-30"/>
       <use xlink:href="#DejaVuSans-2e" x="63.623047"/>
       <use xlink:href="#DejaVuSans-32" x="95.410156"/>
      </g>
     </g>
    </g>
    <g id="ytick_4">
     <g id="line2d_12">
      <g>
       <use xlink:href="#m34757f69c6" x="49.81399" y="136.061901" style="stroke: #000000; stroke-width: 0.8"/>
      </g>
     </g>
     <g id="text_13">
      <!-- 0.3 -->
      <g transform="translate(20.549615 141.380807) scale(0.14 -0.14)">
       <defs>
        <path id="DejaVuSans-33" d="M 2597 2516 
Q 3050 2419 3304 2112 
Q 3559 1806 3559 1356 
Q 3559 666 3084 287 
Q 2609 -91 1734 -91 
Q 1441 -91 1130 -33 
Q 819 25 488 141 
L 488 750 
Q 750 597 1062 519 
Q 1375 441 1716 441 
Q 2309 441 2620 675 
Q 2931 909 2931 1356 
Q 2931 1769 2642 2001 
Q 2353 2234 1838 2234 
L 1294 2234 
L 1294 2753 
L 1863 2753 
Q 2328 2753 2575 2939 
Q 2822 3125 2822 3475 
Q 2822 3834 2567 4026 
Q 2313 4219 1838 4219 
Q 1578 4219 1281 4162 
Q 984 4106 628 3988 
L 628 4550 
Q 988 4650 1302 4700 
Q 1616 4750 1894 4750 
Q 2613 4750 3031 4423 
Q 3450 4097 3450 3541 
Q 3450 3153 3228 2886 
Q 3006 2619 2597 2516 
z
" transform="scale(0.015625)"/>
       </defs>
       <use xlink:href="#DejaVuSans-30"/>
       <use xlink:href="#DejaVuSans-2e" x="63.623047"/>
       <use xlink:href="#DejaVuSans-33" x="95.410156"/>
      </g>
     </g>
    </g>
    <g id="ytick_5">
     <g id="line2d_13">
      <g>
       <use xlink:href="#m34757f69c6" x="49.81399" y="79.915531" style="stroke: #000000; stroke-width: 0.8"/>
      </g>
     </g>
     <g id="text_14">
      <!-- 0.4 -->
      <g transform="translate(20.549615 85.234438) scale(0.14 -0.14)">
       <defs>
        <path id="DejaVuSans-34" d="M 2419 4116 
L 825 1625 
L 2419 1625 
L 2419 4116 
z
M 2253 4666 
L 3047 4666 
L 3047 1625 
L 3713 1625 
L 3713 1100 
L 3047 1100 
L 3047 0 
L 2419 0 
L 2419 1100 
L 313 1100 
L 313 1709 
L 2253 4666 
z
" transform="scale(0.015625)"/>
       </defs>
       <use xlink:href="#DejaVuSans-30"/>
       <use xlink:href="#DejaVuSans-2e" x="63.623047"/>
       <use xlink:href="#DejaVuSans-34" x="95.410156"/>
      </g>
     </g>
    </g>
    <g id="ytick_6">
     <g id="line2d_14">
      <g>
       <use xlink:href="#m34757f69c6" x="49.81399" y="23.769162" style="stroke: #000000; stroke-width: 0.8"/>
      </g>
     </g>
     <g id="text_15">
      <!-- 0.5 -->
      <g transform="translate(20.549615 29.088068) scale(0.14 -0.14)">
       <use xlink:href="#DejaVuSans-30"/>
       <use xlink:href="#DejaVuSans-2e" x="63.623047"/>
       <use xlink:href="#DejaVuSans-35" x="95.410156"/>
      </g>
     </g>
    </g>
    <g id="text_16">
     <!-- Fluorescence Anisotropy -->
     <g transform="translate(13.638052 239.521406) rotate(-90) scale(0.14 -0.14)">
      <defs>
       <path id="DejaVuSans-46" d="M 628 4666 
L 3309 4666 
L 3309 4134 
L 1259 4134 
L 1259 2759 
L 3109 2759 
L 3109 2228 
L 1259 2228 
L 1259 0 
L 628 0 
L 628 4666 
z
" transform="scale(0.015625)"/>
       <path id="DejaVuSans-6c" d="M 603 4863 
L 1178 4863 
L 1178 0 
L 603 0 
L 603 4863 
z
" transform="scale(0.015625)"/>
       <path id="DejaVuSans-6f" d="M 1959 3097 
Q 1497 3097 1228 2736 
Q 959 2375 959 1747 
Q 959 1119 1226 758 
Q 1494 397 1959 397 
Q 2419 397 2687 759 
Q 2956 1122 2956 1747 
Q 2956 2369 2687 2733 
Q 2419 3097 1959 3097 
z
M 1959 3584 
Q 2709 3584 3137 3096 
Q 3566 2609 3566 1747 
Q 3566 888 3137 398 
Q 2709 -91 1959 -91 
Q 1206 -91 779 398 
Q 353 888 353 1747 
Q 353 2609 779 3096 
Q 1206 3584 1959 3584 
z
" transform="scale(0.015625)"/>
       <path id="DejaVuSans-73" d="M 2834 3397 
L 2834 2853 
Q 2591 2978 2328 3040 
Q 2066 3103 1784 3103 
Q 1356 3103 1142 2972 
Q 928 2841 928 2578 
Q 928 2378 1081 2264 
Q 1234 2150 1697 2047 
L 1894 2003 
Q 2506 1872 2764 1633 
Q 3022 1394 3022 966 
Q 3022 478 2636 193 
Q 2250 -91 1575 -91 
Q 1294 -91 989 -36 
Q 684 19 347 128 
L 347 722 
Q 666 556 975 473 
Q 1284 391 1588 391 
Q 1994 391 2212 530 
Q 2431 669 2431 922 
Q 2431 1156 2273 1281 
Q 2116 1406 1581 1522 
L 1381 1569 
Q 847 1681 609 1914 
Q 372 2147 372 2553 
Q 372 3047 722 3315 
Q 1072 3584 1716 3584 
Q 2034 3584 2315 3537 
Q 2597 3491 2834 3397 
z
" transform="scale(0.015625)"/>
       <path id="DejaVuSans-63" d="M 3122 3366 
L 3122 2828 
Q 2878 2963 2633 3030 
Q 2388 3097 2138 3097 
Q 1578 3097 1268 2742 
Q 959 2388 959 1747 
Q 959 1106 1268 751 
Q 1578 397 2138 397 
Q 2388 397 2633 464 
Q 2878 531 3122 666 
L 3122 134 
Q 2881 22 2623 -34 
Q 2366 -91 2075 -91 
Q 1284 -91 818 406 
Q 353 903 353 1747 
Q 353 2603 823 3093 
Q 1294 3584 2113 3584 
Q 2378 3584 2631 3529 
Q 2884 3475 3122 3366 
z
" transform="scale(0.015625)"/>
       <path id="DejaVuSans-41" d="M 2188 4044 
L 1331 1722 
L 3047 1722 
L 2188 4044 
z
M 1831 4666 
L 2547 4666 
L 4325 0 
L 3669 0 
L 3244 1197 
L 1141 1197 
L 716 0 
L 50 0 
L 1831 4666 
z
" transform="scale(0.015625)"/>
       <path id="DejaVuSans-70" d="M 1159 525 
L 1159 -1331 
L 581 -1331 
L 581 3500 
L 1159 3500 
L 1159 2969 
Q 1341 3281 1617 3432 
Q 1894 3584 2278 3584 
Q 2916 3584 3314 3078 
Q 3713 2572 3713 1747 
Q 3713 922 3314 415 
Q 2916 -91 2278 -91 
Q 1894 -91 1617 61 
Q 1341 213 1159 525 
z
M 3116 1747 
Q 3116 2381 2855 2742 
Q 2594 3103 2138 3103 
Q 1681 3103 1420 2742 
Q 1159 2381 1159 1747 
Q 1159 1113 1420 752 
Q 1681 391 2138 391 
Q 2594 391 2855 752 
Q 3116 1113 3116 1747 
z
" transform="scale(0.015625)"/>
       <path id="DejaVuSans-79" d="M 2059 -325 
Q 1816 -950 1584 -1140 
Q 1353 -1331 966 -1331 
L 506 -1331 
L 506 -850 
L 844 -850 
Q 1081 -850 1212 -737 
Q 1344 -625 1503 -206 
L 1606 56 
L 191 3500 
L 800 3500 
L 1894 763 
L 2988 3500 
L 3597 3500 
L 2059 -325 
z
" transform="scale(0.015625)"/>
      </defs>
      <use xlink:href="#DejaVuSans-46"/>
      <use xlink:href="#DejaVuSans-6c" x="57.519531"/>
      <use xlink:href="#DejaVuSans-75" x="85.302734"/>
      <use xlink:href="#DejaVuSans-6f" x="148.681641"/>
      <use xlink:href="#DejaVuSans-72" x="209.863281"/>
      <use xlink:href="#DejaVuSans-65" x="248.726562"/>
      <use xlink:href="#DejaVuSans-73" x="310.25"/>
      <use xlink:href="#DejaVuSans-63" x="362.349609"/>
      <use xlink:href="#DejaVuSans-65" x="417.330078"/>
      <use xlink:href="#DejaVuSans-6e" x="478.853516"/>
      <use xlink:href="#DejaVuSans-63" x="542.232422"/>
      <use xlink:href="#DejaVuSans-65" x="597.212891"/>
      <use xlink:href="#DejaVuSans-20" x="658.736328"/>
      <use xlink:href="#DejaVuSans-41" x="690.523438"/>
      <use xlink:href="#DejaVuSans-6e" x="758.931641"/>
      <use xlink:href="#DejaVuSans-69" x="822.310547"/>
      <use xlink:href="#DejaVuSans-73" x="850.09375"/>
      <use xlink:href="#DejaVuSans-6f" x="902.193359"/>
      <use xlink:href="#DejaVuSans-74" x="963.375"/>
      <use xlink:href="#DejaVuSans-72" x="1002.583984"/>
      <use xlink:href="#DejaVuSans-6f" x="1041.447266"/>
      <use xlink:href="#DejaVuSans-70" x="1102.628906"/>
      <use xlink:href="#DejaVuSans-79" x="1166.105469"/>
     </g>
    </g>
   </g>
   <g id="line2d_15">
    <defs>
     <path id="mf24d70cef0" d="M -3 3 
L 3 3 
L 3 -3 
L -3 -3 
z
" style="stroke: #000000; stroke-linejoin: miter"/>
    </defs>
    <g clip-path="url(#p0104397296)">
     <use xlink:href="#mf24d70cef0" x="49.81399" y="232.490943" style="stroke: #000000; stroke-linejoin: miter"/>
     <use xlink:href="#mf24d70cef0" x="88.546816" y="198.409958" style="stroke: #000000; stroke-linejoin: miter"/>
     <use xlink:href="#mf24d70cef0" x="118.672348" y="177.591586" style="stroke: #000000; stroke-linejoin: miter"/>
     <use xlink:href="#mf24d70cef0" x="133.735114" y="161.412184" style="stroke: #000000; stroke-linejoin: miter"/>
     <use xlink:href="#mf24d70cef0" x="176.771587" y="127.073917" style="stroke: #000000; stroke-linejoin: miter"/>
     <use xlink:href="#mf24d70cef0" x="206.897119" y="109.1704" style="stroke: #000000; stroke-linejoin: miter"/>
     <use xlink:href="#mf24d70cef0" x="267.148182" y="79.463445" style="stroke: #000000; stroke-linejoin: miter"/>
     <use xlink:href="#mf24d70cef0" x="355.372953" y="65.427257" style="stroke: #000000; stroke-linejoin: miter"/>
     <use xlink:href="#mf24d70cef0" x="389.802132" y="53.250368" style="stroke: #000000; stroke-linejoin: miter"/>
    </g>
   </g>
   <g id="line2d_16">
    <path d="M 49.81399 237.019217 
L 53.248214 233.086215 
L 56.682437 229.222842 
L 60.116661 225.427864 
L 63.550885 221.700072 
L 66.985108 218.038275 
L 70.419332 214.441306 
L 73.853556 210.908016 
L 77.287779 207.437279 
L 80.722003 204.027986 
L 84.156227 200.67905 
L 87.59045 197.389403 
L 91.024674 194.157995 
L 94.458897 190.983795 
L 97.893121 187.86579 
L 101.327345 184.802985 
L 104.761568 181.794403 
L 108.195792 178.839083 
L 111.630016 175.936084 
L 115.064239 173.084479 
L 118.498463 170.283358 
L 121.932687 167.531827 
L 125.36691 164.829008 
L 128.801134 162.174039 
L 132.235358 159.566072 
L 135.669581 157.004277 
L 139.103805 154.487834 
L 142.538029 152.015942 
L 145.972252 149.587812 
L 149.406476 147.202668 
L 152.8407 144.85975 
L 156.274923 142.558311 
L 159.709147 140.297615 
L 163.143371 138.076942 
L 166.577594 135.895583 
L 170.011818 133.752843 
L 173.446042 131.648036 
L 176.880265 129.580493 
L 180.314489 127.549553 
L 183.748712 125.554567 
L 187.182936 123.594901 
L 190.61716 121.669928 
L 194.051383 119.779033 
L 197.485607 117.921615 
L 200.919831 116.09708 
L 204.354054 114.304846 
L 207.788278 112.544341 
L 211.222502 110.815003 
L 214.656725 109.116281 
L 218.090949 107.447633 
L 221.525173 105.808526 
L 224.959396 104.198437 
L 228.39362 102.616853 
L 231.827844 101.063268 
L 235.262067 99.537188 
L 238.696291 98.038125 
L 242.130515 96.565601 
L 245.564738 95.119146 
L 248.998962 93.698299 
L 252.433186 92.302606 
L 255.867409 90.931622 
L 259.301633 89.584909 
L 262.735856 88.262038 
L 266.17008 86.962587 
L 269.604304 85.686141 
L 273.038527 84.432292 
L 276.472751 83.200642 
L 279.906975 81.990796 
L 283.341198 80.802369 
L 286.775422 79.634981 
L 290.209646 78.488261 
L 293.643869 77.361841 
L 297.078093 76.255364 
L 300.512317 75.168475 
L 303.94654 74.100828 
L 307.380764 73.052082 
L 310.814988 72.021903 
L 314.249211 71.009963 
L 317.683435 70.015937 
L 321.117659 69.039509 
L 324.551882 68.080367 
L 327.986106 67.138206 
L 331.42033 66.212724 
L 334.854553 65.303627 
L 338.288777 64.410625 
L 341.723001 63.533432 
L 345.157224 62.671768 
L 348.591448 61.825359 
L 352.025671 60.993934 
L 355.459895 60.177229 
L 358.894119 59.374983 
L 362.328342 58.586939 
L 365.762566 57.812846 
L 369.19679 57.052458 
L 372.631013 56.305531 
L 376.065237 55.571828 
L 379.499461 54.851114 
L 382.933684 54.14316 
L 386.367908 53.447738 
L 389.802132 52.764629 
" clip-path="url(#p0104397296)" style="fill: none; stroke-dasharray: 5.55,2.4; stroke-dashoffset: 0; stroke: #ff0000; stroke-width: 1.5"/>
   </g>
   <g id="line2d_17">
    <path d="M 49.81399 233.212632 
L 53.248214 228.747044 
L 56.682437 224.360513 
L 60.116661 220.05164 
L 63.550885 215.81905 
L 66.985108 211.661392 
L 70.419332 207.57734 
L 73.853556 203.565591 
L 77.287779 199.624865 
L 80.722003 195.753904 
L 84.156227 191.951474 
L 87.59045 188.21636 
L 91.024674 184.547372 
L 94.458897 180.943338 
L 97.893121 177.40311 
L 101.327345 173.925556 
L 104.761568 170.509568 
L 108.195792 167.154055 
L 111.630016 163.857947 
L 115.064239 160.620193 
L 118.498463 157.439759 
L 121.932687 154.31563 
L 125.36691 151.24681 
L 128.801134 148.232319 
L 132.235358 145.271196 
L 135.669581 142.362495 
L 139.103805 139.50529 
L 142.538029 136.698667 
L 145.972252 133.941732 
L 149.406476 131.233605 
L 152.8407 128.573422 
L 156.274923 125.960334 
L 159.709147 123.393507 
L 163.143371 120.872122 
L 166.577594 118.395375 
L 170.011818 115.962476 
L 173.446042 113.572648 
L 176.880265 111.225129 
L 180.314489 108.91917 
L 183.748712 106.654034 
L 187.182936 104.429 
L 190.61716 102.243357 
L 194.051383 100.096408 
L 197.485607 97.987468 
L 200.919831 95.915865 
L 204.354054 93.880936 
L 207.788278 91.882032 
L 211.222502 89.918517 
L 214.656725 87.989763 
L 218.090949 86.095156 
L 221.525173 84.23409 
L 224.959396 82.405971 
L 228.39362 80.610217 
L 231.827844 78.846255 
L 235.262067 77.113521 
L 238.696291 75.411463 
L 242.130515 73.739537 
L 245.564738 72.097211 
L 248.998962 70.48396 
L 252.433186 68.89927 
L 255.867409 67.342634 
L 259.301633 65.813557 
L 262.735856 64.31155 
L 266.17008 62.836134 
L 269.604304 61.386838 
L 273.038527 59.9632 
L 276.472751 58.564766 
L 279.906975 57.19109 
L 283.341198 55.841732 
L 286.775422 54.516263 
L 290.209646 53.21426 
L 293.643869 51.935307 
L 297.078093 50.678996 
L 300.512317 49.444926 
L 303.94654 48.232704 
L 307.380764 47.041943 
L 310.814988 45.872263 
L 314.249211 44.723291 
L 317.683435 43.594659 
L 321.117659 42.486008 
L 324.551882 41.396985 
L 327.986106 40.327241 
L 331.42033 39.276436 
L 334.854553 38.244234 
L 338.288777 37.230306 
L 341.723001 36.234328 
L 345.157224 35.255982 
L 348.591448 34.294957 
L 352.025671 33.350945 
L 355.459895 32.423646 
L 358.894119 31.512764 
L 362.328342 30.618007 
L 365.762566 29.739091 
L 369.19679 28.875735 
L 372.631013 28.027664 
L 376.065237 27.194607 
L 379.499461 26.376297 
L 382.933684 25.572475 
L 386.367908 24.782884 
L 389.802132 24.007271 
" clip-path="url(#p0104397296)" style="fill: none; stroke-dasharray: 1.5,2.475; stroke-dashoffset: 0; stroke: #ff0000; stroke-width: 1.5"/>
   </g>
   <g id="line2d_18">
    <path d="M 49.81399 240.825803 
L 53.248214 237.425387 
L 56.682437 234.085171 
L 60.116661 230.804089 
L 63.550885 227.581094 
L 66.985108 224.415159 
L 70.419332 221.305272 
L 73.853556 218.250441 
L 77.287779 215.249692 
L 80.722003 212.302068 
L 84.156227 209.406627 
L 87.59045 206.562447 
L 91.024674 203.768618 
L 94.458897 201.024251 
L 97.893121 198.32847 
L 101.327345 195.680413 
L 104.761568 193.079237 
L 108.195792 190.524112 
L 111.630016 188.014221 
L 115.064239 185.548765 
L 118.498463 183.126957 
L 121.932687 180.748023 
L 125.36691 178.411206 
L 128.801134 176.115758 
L 132.235358 173.860949 
L 135.669581 171.646058 
L 139.103805 169.470379 
L 142.538029 167.333217 
L 145.972252 165.233891 
L 149.406476 163.171731 
L 152.8407 161.146078 
L 156.274923 159.156287 
L 159.709147 157.201723 
L 163.143371 155.281762 
L 166.577594 153.395791 
L 170.011818 151.543209 
L 173.446042 149.723424 
L 176.880265 147.935856 
L 180.314489 146.179935 
L 183.748712 144.4551 
L 187.182936 142.760801 
L 190.61716 141.096498 
L 194.051383 139.461658 
L 197.485607 137.855762 
L 200.919831 136.278295 
L 204.354054 134.728756 
L 207.788278 133.206649 
L 211.222502 131.711489 
L 214.656725 130.242799 
L 218.090949 128.80011 
L 221.525173 127.382962 
L 224.959396 125.990903 
L 228.39362 124.623489 
L 231.827844 123.280282 
L 235.262067 121.960856 
L 238.696291 120.664788 
L 242.130515 119.391665 
L 245.564738 118.141081 
L 248.998962 116.912638 
L 252.433186 115.705942 
L 255.867409 114.520609 
L 259.301633 113.356261 
L 262.735856 112.212526 
L 266.17008 111.08904 
L 269.604304 109.985443 
L 273.038527 108.901384 
L 276.472751 107.836517 
L 279.906975 106.790502 
L 283.341198 105.763005 
L 286.775422 104.753699 
L 290.209646 103.762261 
L 293.643869 102.788376 
L 297.078093 101.831731 
L 300.512317 100.892023 
L 303.94654 99.968951 
L 307.380764 99.062221 
L 310.814988 98.171544 
L 314.249211 97.296635 
L 317.683435 96.437214 
L 321.117659 95.593009 
L 324.551882 94.763749 
L 327.986106 93.949171 
L 331.42033 93.149013 
L 334.854553 92.363021 
L 338.288777 91.590944 
L 341.723001 90.832535 
L 345.157224 90.087554 
L 348.591448 89.355761 
L 352.025671 88.636923 
L 355.459895 87.930812 
L 358.894119 87.237201 
L 362.328342 86.55587 
L 365.762566 85.886601 
L 369.19679 85.229181 
L 372.631013 84.583399 
L 376.065237 83.94905 
L 379.499461 83.325931 
L 382.933684 82.713844 
L 386.367908 82.112593 
L 389.802132 81.521986 
" clip-path="url(#p0104397296)" style="fill: none; stroke-dasharray: 1.5,2.475; stroke-dashoffset: 0; stroke: #ff0000; stroke-width: 1.5"/>
   </g>
   <g id="patch_3">
    <path d="M 49.81399 304.50101 
L 49.81399 3.00024 
" style="fill: none; stroke: #000000; stroke-width: 0.8; stroke-linejoin: miter; stroke-linecap: square"/>
   </g>
   <g id="patch_4">
    <path d="M 457.79976 304.50101 
L 457.79976 3.00024 
" style="fill: none; stroke: #000000; stroke-width: 0.8; stroke-linejoin: miter; stroke-linecap: square"/>
   </g>
   <g id="patch_5">
    <path d="M 49.81399 304.50101 
L 457.79976 304.50101 
" style="fill: none; stroke: #000000; stroke-width: 0.8; stroke-linejoin: miter; stroke-linecap: square"/>
   </g>
   <g id="patch_6">
    <path d="M 49.81399 3.00024 
L 457.79976 3.00024 
" style="fill: none; stroke: #000000; stroke-width: 0.8; stroke-linejoin: miter; stroke-linecap: square"/>
   </g>
  </g>
 </g>
 <defs>
  <clipPath id="p0104397296">
   <rect x="49.81399" y="3.00024" width="407.98577" height="301.50077"/>
  </clipPath>
 </defs>
</svg>
